<svg xmlns="http://www.w3.org/2000/svg" width="412" height="61" fill="none" viewBox="0 0 412 61"><path fill="#fff" fill-rule="evenodd" d="M-12.813 10C-39.8353 10 -66.9987 18.2312 -94.3553 34.915L-98.5207 28.085C-70.1273 10.7688 -41.5406 2 -12.813 2C15.9147 2 44.5013 10.7688 72.8947 28.085C100.251 44.7688 127.415 53 154.437 53C181.459 53 208.623 44.7688 235.979 28.085C264.373 10.7688 292.959 2 321.687 2C350.415 2 379.001 10.7688 407.395 28.085C434.751 44.7688 461.915 53 488.937 53C515.959 53 543.123 44.7688 570.479 28.085L574.645 34.915C546.251 52.2312 517.665 61 488.937 61C460.209 61 431.623 52.2312 403.229 34.915C375.873 18.2312 348.709 10 321.687 10C294.665 10 267.501 18.2312 240.145 34.915C211.751 52.2312 183.165 61 154.437 61C125.709 61 97.1227 52.2312 68.7293 34.915C41.3727 18.2312 14.2094 10 -12.813 10ZM-50.813 6C-78.0485 6 -105.39 14.2984 -132.876 31.0613L-136 25.9387C-107.736 8.70161 -79.3275 0 -50.813 0C-22.2985 0 6.11024 8.70161 34.3741 25.9387C61.8602 42.7016 89.2015 51 116.437 51C143.673 51 171.014 42.7016 198.5 25.9387C226.764 8.70161 255.173 0 283.687 0C312.202 0 340.61 8.70161 368.874 25.9387C396.36 42.7016 423.702 51 450.937 51C478.173 51 505.514 42.7016 533 25.9387L536.124 31.0613C507.86 48.2984 479.452 57 450.937 57C422.422 57 394.014 48.2984 365.75 31.0613C338.264 14.2984 310.923 6 283.687 6C256.452 6 229.11 14.2984 201.624 31.0613C173.36 48.2984 144.952 57 116.437 57C87.9225 57 59.5138 48.2984 31.25 31.0613C3.76382 14.2984 -23.5775 6 -50.813 6Z" clip-rule="evenodd"/></svg>